<svg
   xmlns="http://www.w3.org/2000/svg"
   xmlns:sodipodi="http://sodipodi.sourceforge.net/DTD/sodipodi-0.dtd"
   xmlns:inkscape="http://www.inkscape.org/namespaces/inkscape"
   sodipodi:docname="blog-decor.svg"
   width="127"
   height="54"
>
    <path
       d="m 122.9338,51.6778 a 1.741,1.741 0 1 1 3.482,0 c 0,0.959 -0.78,1.737 -1.741,1.737 a 1.74,1.74 0 0 1 -1.741,-1.737 z m -13.71,0 c 0,-0.96 0.78,-1.739 1.741,-1.739 a 1.74,1.74 0 0 1 0,3.476 1.74,1.74 0 0 1 -1.74,-1.737 z m -13.492,0 a 1.741,1.741 0 1 1 3.482,0 c 0,0.959 -0.78,1.737 -1.741,1.737 a 1.74,1.74 0 0 1 -1.741,-1.737 z m -13.71,0 c 0,-0.96 0.78,-1.739 1.741,-1.739 a 1.74,1.74 0 0 1 1.741,1.739 c 0,0.959 -0.78,1.737 -1.741,1.737 a 1.74,1.74 0 0 1 -1.741,-1.737 z m -13.492,0 a 1.741,1.741 0 1 1 3.482,0 c 0,0.959 -0.78,1.737 -1.741,1.737 a 1.74,1.74 0 0 1 -1.741,-1.737 z m -13.71,0 a 1.741,1.741 0 1 1 3.482,0 c 0,0.959 -0.78,1.737 -1.741,1.737 a 1.74,1.74 0 0 1 -1.741,-1.737 z m -13.492,0 a 1.741,1.741 0 1 1 3.482,0 c 0,0.959 -0.78,1.737 -1.741,1.737 a 1.74,1.74 0 0 1 -1.741,-1.737 z m -13.71,0 a 1.741,1.741 0 1 1 3.482,0 c 0,0.959 -0.78,1.737 -1.741,1.737 a 1.74,1.74 0 0 1 -1.741,-1.737 z m -13.492,0 a 1.741,1.741 0 1 1 3.482,0 c 0,0.959 -0.78,1.737 -1.741,1.737 a 1.74,1.74 0 0 1 -1.741,-1.737 z m -13.70999958,0 a 1.741,1.741 0 1 1 3.48199998,0 c 0,0.959 -0.78,1.737 -1.741,1.737 A 1.74,1.74 0 0 1 0.41580042,51.6778 Z M 122.9338,35.1688 c 0,-0.96 0.78,-1.737 1.74,-1.737 a 1.74,1.74 0 0 1 1.742,1.737 c 0,0.96 -0.78,1.738 -1.741,1.738 a 1.74,1.74 0 0 1 -1.741,-1.738 z m -13.71,0 c 0,-0.96 0.78,-1.737 1.741,-1.737 0.962,0 1.741,0.778 1.741,1.737 a 1.741,1.741 0 1 1 -3.482,0 z m -13.492,0 c 0,-0.96 0.78,-1.737 1.74,-1.737 0.962,0 1.742,0.778 1.742,1.737 0,0.96 -0.78,1.738 -1.741,1.738 a 1.74,1.74 0 0 1 -1.741,-1.738 z m -13.71,0 c 0,-0.96 0.78,-1.737 1.741,-1.737 a 1.74,1.74 0 0 1 1.741,1.737 c 0,0.96 -0.78,1.738 -1.741,1.738 a 1.74,1.74 0 0 1 -1.741,-1.738 z m -13.492,0 c 0,-0.96 0.78,-1.737 1.74,-1.737 a 1.74,1.74 0 0 1 1.742,1.737 c 0,0.96 -0.78,1.738 -1.741,1.738 a 1.74,1.74 0 0 1 -1.741,-1.738 z m -13.71,0 c 0,-0.96 0.78,-1.737 1.74,-1.737 0.962,0 1.742,0.778 1.742,1.737 0,0.96 -0.78,1.738 -1.741,1.738 a 1.74,1.74 0 0 1 -1.741,-1.738 z m -13.492,0 c 0,-0.96 0.78,-1.737 1.74,-1.737 a 1.74,1.74 0 0 1 1.742,1.737 c 0,0.96 -0.78,1.738 -1.741,1.738 a 1.74,1.74 0 0 1 -1.741,-1.738 z m -13.71,0 c 0,-0.96 0.78,-1.737 1.74,-1.737 0.962,0 1.742,0.778 1.742,1.737 0,0.96 -0.78,1.738 -1.741,1.738 a 1.74,1.74 0 0 1 -1.741,-1.738 z m -13.492,0 c 0,-0.96 0.78,-1.737 1.74,-1.737 a 1.74,1.74 0 0 1 1.742,1.737 c 0,0.96 -0.78,1.738 -1.741,1.738 a 1.74,1.74 0 0 1 -1.741,-1.738 z m -13.70999958,0 c 0,-0.96 0.77999998,-1.737 1.73999998,-1.737 0.962,0 1.742,0.778 1.742,1.737 0,0.96 -0.78,1.738 -1.741,1.738 A 1.74,1.74 0 0 1 0.41580042,35.1688 Z M 122.9338,18.6608 c 0,-0.96 0.78,-1.737 1.74,-1.737 a 1.74,1.74 0 0 1 1.742,1.737 c 0,0.96 -0.78,1.738 -1.741,1.738 a 1.74,1.74 0 0 1 -1.741,-1.738 z m -13.71,0 c 0,-0.96 0.78,-1.737 1.741,-1.737 0.962,0 1.741,0.778 1.741,1.737 a 1.741,1.741 0 1 1 -3.482,0 z m -13.492,0 c 0,-0.96 0.78,-1.737 1.74,-1.737 0.962,0 1.742,0.778 1.742,1.737 0,0.96 -0.78,1.738 -1.741,1.738 a 1.74,1.74 0 0 1 -1.741,-1.738 z m -13.71,0 c 0,-0.96 0.78,-1.737 1.741,-1.737 a 1.74,1.74 0 0 1 1.741,1.737 c 0,0.96 -0.78,1.738 -1.741,1.738 a 1.74,1.74 0 0 1 -1.741,-1.738 z m -13.492,0 c 0,-0.96 0.78,-1.737 1.74,-1.737 a 1.74,1.74 0 0 1 1.742,1.737 c 0,0.96 -0.78,1.738 -1.741,1.738 a 1.74,1.74 0 0 1 -1.741,-1.738 z m -13.71,0 c 0,-0.96 0.78,-1.737 1.74,-1.737 a 1.74,1.74 0 0 1 1.742,1.737 c 0,0.96 -0.78,1.738 -1.741,1.738 a 1.74,1.74 0 0 1 -1.741,-1.738 z m -13.492,0 c 0,-0.96 0.78,-1.737 1.74,-1.737 a 1.74,1.74 0 0 1 1.742,1.737 c 0,0.96 -0.78,1.738 -1.741,1.738 a 1.74,1.74 0 0 1 -1.741,-1.738 z m -13.71,0 c 0,-0.96 0.78,-1.737 1.74,-1.737 0.962,0 1.742,0.778 1.742,1.737 0,0.96 -0.78,1.738 -1.741,1.738 a 1.74,1.74 0 0 1 -1.741,-1.738 z m -13.492,0 c 0,-0.96 0.78,-1.737 1.74,-1.737 a 1.74,1.74 0 0 1 1.742,1.737 c 0,0.96 -0.78,1.738 -1.741,1.738 a 1.74,1.74 0 0 1 -1.741,-1.738 z m -13.70999958,0 c 0,-0.96 0.77999998,-1.737 1.73999998,-1.737 0.962,0 1.742,0.778 1.742,1.737 0,0.96 -0.78,1.738 -1.741,1.738 A 1.74,1.74 0 0 1 0.41580042,18.6608 Z M 122.9338,2.1528004 c 0,-0.96 0.78,-1.73799998 1.74,-1.73799998 a 1.74,1.74 0 0 1 1.742,1.73799998 c 0,0.96 -0.78,1.738 -1.741,1.738 a 1.74,1.74 0 0 1 -1.741,-1.738 z m -13.71,0 c 0,-0.96 0.78,-1.73799998 1.741,-1.73799998 0.962,0 1.741,0.77899998 1.741,1.73799998 a 1.741,1.741 0 1 1 -3.482,0 z m -13.492,0 c 0,-0.96 0.78,-1.73799998 1.74,-1.73799998 0.962,0 1.742,0.77899998 1.742,1.73799998 0,0.96 -0.78,1.738 -1.741,1.738 a 1.74,1.74 0 0 1 -1.741,-1.738 z m -13.71,0 c 0,-0.96 0.78,-1.73799998 1.741,-1.73799998 a 1.74,1.74 0 0 1 1.741,1.73799998 c 0,0.96 -0.78,1.738 -1.741,1.738 a 1.74,1.74 0 0 1 -1.741,-1.738 z m -13.492,0 c 0,-0.96 0.78,-1.73799998 1.74,-1.73799998 a 1.74,1.74 0 0 1 1.742,1.73799998 c 0,0.96 -0.78,1.738 -1.741,1.738 a 1.74,1.74 0 0 1 -1.741,-1.738 z m -13.71,0 c 0,-0.96 0.78,-1.73799998 1.74,-1.73799998 a 1.74,1.74 0 0 1 1.742,1.73799998 c 0,0.96 -0.78,1.738 -1.741,1.738 a 1.74,1.74 0 0 1 -1.741,-1.738 z m -13.492,0 c 0,-0.96 0.78,-1.73799998 1.74,-1.73799998 a 1.74,1.74 0 0 1 1.742,1.73799998 c 0,0.96 -0.78,1.738 -1.741,1.738 a 1.74,1.74 0 0 1 -1.741,-1.738 z m -13.71,0 c 0,-0.96 0.78,-1.73799998 1.74,-1.73799998 0.962,0 1.742,0.77899998 1.742,1.73799998 0,0.96 -0.78,1.738 -1.741,1.738 a 1.74,1.74 0 0 1 -1.741,-1.738 z m -13.492,0 c 0,-0.96 0.78,-1.73799998 1.74,-1.73799998 a 1.74,1.74 0 0 1 1.742,1.73799998 c 0,0.96 -0.78,1.738 -1.741,1.738 a 1.74,1.74 0 0 1 -1.741,-1.738 z m -13.70999958,0 c 0,-0.96 0.77999998,-1.73799998 1.73999998,-1.73799998 0.962,0 1.742,0.77899998 1.742,1.73799998 0,0.96 -0.78,1.738 -1.741,1.738 a 1.74,1.74 0 0 1 -1.74099998,-1.738 z"
       fill="#fe3e57" />
</svg>
