<svg width="1618" height="357" xmlns="http://www.w3.org/2000/svg" xmlns:xlink="http://www.w3.org/1999/xlink" xmlns:svgjs="http://svgjs.com/svgjs" viewBox="123 5870 1618 357"><svg width="48" height="48" xmlns="http://www.w3.org/2000/svg" xmlns:xlink="http://www.w3.org/1999/xlink" xmlns:svgjs="http://svgjs.com/svgjs" fill="#fe3e57" x="1693" y="6179"><svg xmlns="http://www.w3.org/2000/svg" xmlns:xlink="http://www.w3.org/1999/xlink" width="48" height="48"><path paint-order="stroke fill markers" fill-rule="evenodd" d="M25.499 2C12.519 2 1.998 12.519 1.998 25.497s10.521 23.5 23.5 23.5c12.98 0 23.504-10.522 23.504-23.5S38.478 2 25.499 2zm0 42.195c-10.326 0-18.7-8.37-18.7-18.698 0-10.326 8.374-18.695 18.7-18.695 10.33 0 18.7 8.369 18.7 18.695 0 10.329-8.37 18.698-18.7 18.698zm.018-24.3a5.606 5.606 0 1 0-.034 11.208 5.606 5.606 0 0 0 .034-11.209z"/></svg></svg><svg width="107" height="106" xmlns="http://www.w3.org/2000/svg" xmlns:xlink="http://www.w3.org/1999/xlink" xmlns:svgjs="http://svgjs.com/svgjs" fill="#34c3ff" x="123" y="5870"><svg xmlns="http://www.w3.org/2000/svg" width="107" height="106"><path paint-order="stroke fill markers" fill-rule="evenodd" d="M83.398 30.765a2.159 2.159 0 1 0 0 4.316 2.16 2.16 0 0 0 2.161-2.157 2.16 2.16 0 0 0-2.161-2.159zm-14.406 0a2.16 2.16 0 0 0-2.163 2.159 2.16 2.16 0 0 0 4.323 0 2.159 2.159 0 0 0-2.16-2.159zm0-14.384a2.16 2.16 0 0 0-2.163 2.158 2.16 2.16 0 0 0 2.163 2.158 2.159 2.159 0 1 0 0-4.316zm-14.407 0h-.001a2.16 2.16 0 0 0-2.162 2.158 2.16 2.16 0 0 0 2.162 2.158 2.16 2.16 0 0 0 2.162-2.158 2.16 2.16 0 0 0-2.161-2.158zm21.61 21.577c-1.193 0-2.16.965-2.16 2.158 0 1.19.967 2.156 2.16 2.156 1.192 0 2.16-.966 2.16-2.156a2.159 2.159 0 0 0-2.16-2.158zm14.407 0a2.16 2.16 0 0 0-2.162 2.158 2.16 2.16 0 0 0 2.162 2.156 2.16 2.16 0 0 0 2.161-2.156 2.16 2.16 0 0 0-2.161-2.158zM76.195 23.573a2.159 2.159 0 0 0 0 4.315 2.159 2.159 0 1 0 0-4.315zm-14.407 0a2.16 2.16 0 0 0-2.163 2.158 2.16 2.16 0 0 0 2.163 2.158 2.16 2.16 0 0 0 2.161-2.158 2.16 2.16 0 0 0-2.161-2.158zm36.017 35.96a2.16 2.16 0 0 0-2.161 2.158 2.16 2.16 0 0 0 2.161 2.157 2.159 2.159 0 1 0 0-4.315zm-14.407 0a2.158 2.158 0 1 0 0 4.315 2.16 2.16 0 0 0 2.161-2.157 2.16 2.16 0 0 0-2.161-2.158zm-14.406 0a2.16 2.16 0 0 0-2.163 2.158 2.16 2.16 0 0 0 2.163 2.157 2.159 2.159 0 1 0 0-4.315zM97.805 45.15a2.16 2.16 0 0 0-2.161 2.157 2.16 2.16 0 0 0 2.161 2.159 2.159 2.159 0 1 0 0-4.316zm-14.407 0a2.159 2.159 0 0 0 0 4.316 2.16 2.16 0 0 0 2.161-2.159 2.16 2.16 0 0 0-2.161-2.157zm-14.406 0a2.16 2.16 0 0 0-2.163 2.157 2.16 2.16 0 0 0 2.163 2.159 2.159 2.159 0 1 0 0-4.316zm-14.407 0h-.001a2.16 2.16 0 0 0-2.162 2.157 2.16 2.16 0 0 0 2.162 2.159 2.16 2.16 0 0 0 2.162-2.159 2.16 2.16 0 0 0-2.161-2.157zm21.61 21.576a2.16 2.16 0 0 0-2.16 2.158c0 1.191.967 2.157 2.16 2.157 1.192 0 2.16-.966 2.16-2.157a2.16 2.16 0 0 0-2.16-2.158zm14.407 0a2.16 2.16 0 0 0-2.162 2.158c0 1.191.968 2.157 2.162 2.157a2.16 2.16 0 0 0 2.161-2.157 2.16 2.16 0 0 0-2.161-2.158zM76.195 52.341a2.159 2.159 0 1 0 0 4.315c1.192 0 2.16-.965 2.16-2.157a2.159 2.159 0 0 0-2.16-2.158zM92.762 54.5A2.16 2.16 0 0 0 90.6 52.34a2.159 2.159 0 1 0 0 4.315 2.16 2.16 0 0 0 2.16-2.157zm12.247-2.158a2.16 2.16 0 0 0-2.163 2.158 2.16 2.16 0 0 0 2.163 2.157 2.16 2.16 0 0 0 2.16-2.157 2.16 2.16 0 0 0-2.16-2.158zm-43.221 0a2.16 2.16 0 0 0-2.163 2.158 2.16 2.16 0 0 0 2.163 2.157 2.16 2.16 0 0 0 2.161-2.157 2.16 2.16 0 0 0-2.161-2.158zm7.204 35.96a2.16 2.16 0 0 0-2.163 2.157 2.16 2.16 0 0 0 2.163 2.158 2.159 2.159 0 1 0 0-4.315zm14.406-14.385a2.159 2.159 0 0 0 0 4.316 2.16 2.16 0 0 0 2.161-2.158 2.16 2.16 0 0 0-2.161-2.158zm-14.406 0a2.16 2.16 0 0 0-2.163 2.158 2.16 2.16 0 0 0 2.163 2.158 2.159 2.159 0 1 0 0-4.316zm-14.407 0h-.001a2.16 2.16 0 0 0-2.162 2.158 2.16 2.16 0 0 0 2.162 2.158 2.16 2.16 0 0 0 2.162-2.158 2.16 2.16 0 0 0-2.161-2.158zm21.61 7.192a2.16 2.16 0 1 0-.002 4.32 2.16 2.16 0 0 0 .002-4.32zm-14.407 0a2.16 2.16 0 0 0-2.163 2.158 2.16 2.16 0 0 0 2.163 2.159 2.16 2.16 0 0 0 2.161-2.159 2.16 2.16 0 0 0-2.161-2.158zm-7.203 21.576h-.001a2.16 2.16 0 0 0-2.162 2.158A2.16 2.16 0 0 0 54.584 107a2.16 2.16 0 0 0 2.162-2.157 2.16 2.16 0 0 0-2.161-2.158zm-.001-96.371a2.16 2.16 0 0 0 2.16-2.158 2.16 2.16 0 0 0-2.16-2.158 2.16 2.16 0 0 0-2.162 2.158 2.16 2.16 0 0 0 2.162 2.158zM47.38 9.19c-1.193 0-2.16.965-2.16 2.157 0 1.192.967 2.158 2.16 2.158a2.16 2.16 0 0 0 2.162-2.158A2.16 2.16 0 0 0 47.38 9.19zm14.408 4.315a2.16 2.16 0 0 0 2.16-2.158 2.16 2.16 0 0 0-2.16-2.157 2.16 2.16 0 0 0-2.163 2.157 2.16 2.16 0 0 0 2.163 2.158zM54.584 35.08a2.16 2.16 0 0 0 2.16-2.157 2.16 2.16 0 0 0-2.16-2.159 2.16 2.16 0 0 0-2.162 2.159 2.16 2.16 0 0 0 2.162 2.157zm-7.204 2.877c-1.193 0-2.16.965-2.16 2.158 0 1.19.967 2.156 2.16 2.156a2.16 2.16 0 0 0 2.162-2.156 2.16 2.16 0 0 0-2.162-2.158zm14.408 4.314a2.16 2.16 0 0 0 2.16-2.156 2.16 2.16 0 0 0-2.16-2.158 2.16 2.16 0 0 0-2.163 2.158 2.16 2.16 0 0 0 2.163 2.156zM47.38 23.573a2.159 2.159 0 0 0 0 4.315 2.16 2.16 0 0 0 2.162-2.157 2.16 2.16 0 0 0-2.162-2.158zm-13.565.17c-.259-.11-.542-.17-.84-.17h-.001a2.163 2.163 0 0 0-2.161 2.158 2.162 2.162 0 0 0 2.161 2.157 2.157 2.157 0 0 0 .841-4.145zm20.769 40.105a2.16 2.16 0 0 0 2.16-2.157 2.16 2.16 0 0 0-2.16-2.158 2.159 2.159 0 0 0-2.162 2.158 2.16 2.16 0 0 0 2.162 2.157zm-7.204 2.877a2.16 2.16 0 0 0-2.16 2.158c0 1.191.967 2.157 2.16 2.157a2.16 2.16 0 0 0 2.162-2.157 2.16 2.16 0 0 0-2.162-2.158zm14.408 4.315a2.16 2.16 0 0 0 2.16-2.157 2.16 2.16 0 0 0-2.16-2.158 2.16 2.16 0 0 0-2.163 2.158 2.16 2.16 0 0 0 2.163 2.157zM47.38 52.34a2.159 2.159 0 1 0 0 4.315 2.16 2.16 0 0 0 2.162-2.157 2.16 2.16 0 0 0-2.162-2.158zm-13.565.17c-.259-.11-.542-.17-.84-.17h-.001a2.161 2.161 0 0 0-2.161 2.158 2.163 2.163 0 0 0 2.161 2.158 2.158 2.158 0 0 0 .841-4.146zm20.769 40.105a2.16 2.16 0 0 0 2.16-2.158 2.16 2.16 0 0 0-2.16-2.157 2.159 2.159 0 0 0-2.162 2.157 2.16 2.16 0 0 0 2.162 2.158zm-7.204 2.877c-1.193 0-2.16.965-2.16 2.157 0 1.191.967 2.157 2.16 2.157a2.16 2.16 0 0 0 2.162-2.157 2.16 2.16 0 0 0-2.162-2.157zm14.408 0a2.16 2.16 0 0 0-2.163 2.157 2.16 2.16 0 0 0 2.163 2.157 2.16 2.16 0 0 0 2.16-2.157 2.16 2.16 0 0 0-2.16-2.157zM47.38 81.108a2.16 2.16 0 1 0 0 4.317 2.16 2.16 0 0 0 2.162-2.159 2.16 2.16 0 0 0-2.162-2.158zm-13.565.17c-.259-.11-.542-.17-.84-.17h-.001a2.163 2.163 0 0 0-2.161 2.158 2.163 2.163 0 0 0 2.161 2.158 2.158 2.158 0 0 0 .841-4.146zm6.364-50.513h-.001a2.162 2.162 0 0 0-2.161 2.159 2.162 2.162 0 0 0 2.161 2.158 2.158 2.158 0 1 0 0-4.317zm-14.41 0a2.159 2.159 0 1 0 0 4.316 2.16 2.16 0 0 0 2.163-2.157 2.16 2.16 0 0 0-2.162-2.159zm14.41-14.384h-.001c-.896 0-1.664.544-1.992 1.318a2.166 2.166 0 0 0 0 1.68 2.162 2.162 0 0 0 1.992 1.318 2.159 2.159 0 1 0 0-4.316zM18.566 37.958a2.158 2.158 0 1 0 0 4.314 2.16 2.16 0 0 0 2.162-2.156 2.16 2.16 0 0 0-2.162-2.158zm14.409 0a2.159 2.159 0 0 0-2.162 2.158c0 1.19.967 2.156 2.162 2.156a2.16 2.16 0 0 0 2.16-2.156 2.16 2.16 0 0 0-2.16-2.158zm7.204 21.575h-.001a2.161 2.161 0 0 0-2.161 2.158 2.16 2.16 0 0 0 2.161 2.158 2.157 2.157 0 1 0 0-4.316zm-14.41 0a2.158 2.158 0 1 0 0 4.315 2.16 2.16 0 0 0 2.163-2.157 2.16 2.16 0 0 0-2.162-2.158zm-14.405 0a2.16 2.16 0 0 0-2.162 2.158 2.16 2.16 0 0 0 2.162 2.157 2.158 2.158 0 0 0 0-4.315zM40.179 45.15h-.001a2.162 2.162 0 0 0-2.161 2.157 2.155 2.155 0 0 0 2.16 2.159h.002a2.158 2.158 0 1 0 0-4.316zm-14.41 0a2.159 2.159 0 0 0 0 4.316 2.16 2.16 0 0 0 2.163-2.159 2.16 2.16 0 0 0-2.162-2.157zm-14.405 0a2.16 2.16 0 0 0-2.162 2.157 2.16 2.16 0 0 0 2.162 2.159 2.159 2.159 0 1 0 0-4.316zm7.202 21.576a2.158 2.158 0 0 0 0 4.315 2.16 2.16 0 0 0 2.162-2.157 2.16 2.16 0 0 0-2.162-2.158zm14.409 0a2.159 2.159 0 0 0 0 4.315 2.16 2.16 0 0 0 2.16-2.157 2.16 2.16 0 0 0-2.16-2.158zM18.566 52.341a2.158 2.158 0 1 0 0 4.315 2.16 2.16 0 0 0 2.162-2.157 2.16 2.16 0 0 0-2.162-2.158zm-14.406 0A2.159 2.159 0 0 0 2 54.5a2.16 2.16 0 0 0 2.161 2.157A2.16 2.16 0 0 0 6.322 54.5 2.16 2.16 0 0 0 4.16 52.34zm36.019 35.96h-.001a2.161 2.161 0 0 0-2.161 2.157 2.157 2.157 0 0 0 2.16 2.158h.002a2.158 2.158 0 1 0 0-4.315zm0-14.385h-.001a2.16 2.16 0 0 0-1.992 2.999 2.161 2.161 0 0 0 1.992 1.317 2.158 2.158 0 1 0 0-4.316zm-14.41 0a2.159 2.159 0 0 0 0 4.316 2.16 2.16 0 0 0 2.163-2.158 2.16 2.16 0 0 0-2.162-2.158z"/></svg></svg></svg>