<svg xmlns="http://www.w3.org/2000/svg" width="112" height="112" viewBox="0 0 112 112"><defs><mask id="z9nxb" width="2" height="2" x="-1" y="-1"><path fill="#fff" d="M16 9h80v80H16z"/><path d="M56 9c22.091 0 40 17.909 40 40S78.09 89 56 89 16 71.09 16 49 33.909 9 56 9z"/></mask><filter id="z9nxa" width="140" height="147" x="-14" y="-21" filterUnits="userSpaceOnUse"><feOffset dy="7" in="SourceGraphic" result="FeOffset1023Out"/><feGaussianBlur in="FeOffset1023Out" result="FeGaussianBlur1024Out" stdDeviation="8 8"/></filter></defs><g><g><g filter="url(#z9nxa)"><path fill="none" d="M56 9c22.091 0 40 17.909 40 40S78.09 89 56 89 16 71.09 16 49 33.909 9 56 9z" mask="url(&quot;#z9nxb&quot;)"/><path fill="#a8a8a8" fill-opacity=".3" d="M56 9c22.091 0 40 17.909 40 40S78.09 89 56 89 16 71.09 16 49 33.909 9 56 9z"/></g><path fill="#fff" d="M56 9c22.091 0 40 17.909 40 40S78.09 89 56 89 16 71.09 16 49 33.909 9 56 9z"/></g><g><g><text fill="#fe3e57" style="line-height:26px" dominant-baseline="text-before-edge" font-family="'FontAwesome5Free-Solid','FontAwesome5Free-Solid'" font-size="22" font-style="none" font-weight="400" transform="translate(46 37)"><tspan style="font-kerning:normal"></tspan></text></g></g></g></svg>