<svg
   xmlns="http://www.w3.org/2000/svg"
   xmlns:sodipodi="http://sodipodi.sourceforge.net/DTD/sodipodi-0.dtd"
   xmlns:inkscape="http://www.inkscape.org/namespaces/inkscape"
   sodipodi:docname="blog-arrow-right.svg"
   height="9"
   width="11"
   >
   <path
         d="m 10.228015,4.1173098 -3.6111268,-3.472 a 0.55517319,0.555 0 0 0 -0.3861205,-0.155 0.55517319,0.555 0 0 0 -0.3871207,0.155 l -0.3271026,0.315 a 0.52116258,0.521 0 0 0 0,0.749 l 2.1056574,2.03 H 0.9301129 a 0.52316321,0.523 0 0 0 -0.540168,0.517 v 0.447 c 0,0.29 0.239075,0.54 0.540168,0.54 H 7.6462093 L 5.5155444,7.2853096 a 0.50415728,0.504 0 0 0 0,0.739 l 0.3281026,0.314 c 0.1030321,0.1 0.2400748,0.153 0.3871207,0.153 a 0.55417288,0.554 0 0 0 0.3871208,-0.154 L 10.229015,4.8653098 a 0.5141604,0.514 0 0 0 0,-0.747 c -0.104032,-0.1 0,0 0,0"
         fill="#8d8d8d"
   />
</svg>
