<svg
   xmlns="http://www.w3.org/2000/svg"
   xmlns:sodipodi="http://sodipodi.sourceforge.net/DTD/sodipodi-0.dtd"
   xmlns:inkscape="http://www.inkscape.org/namespaces/inkscape"
   sodipodi:docname="clock.svg"
   width="21"
   height="21">
    <path
       d="m 18.382288,5.7482881 a 0.833,0.833 0 0 0 -0.387,1.114 c 0.548,1.13 0.825,2.35 0.825,3.6239999 0,4.595 -3.738,8.333 -8.333,8.333 -4.5949999,0 -8.3329999,-3.738 -8.3329999,-8.333 0,-4.5949999 3.738,-8.3329999 8.3329999,-8.3329999 1.904,0 3.693,0.622 5.173,1.797 a 0.83264308,0.83264308 0 1 0 1.037,-1.303 10.016,10.016 0 0 0 -6.21,-2.15999996 c -5.5139999,0 -9.99999986,4.48599996 -9.99999986,9.99999986 0,5.514 4.48599996,10 9.99999986,10 5.514,0 10,-4.486 10,-10 a 9.9,9.9 0 0 0 -0.992,-4.3499999 0.833,0.833 0 0 0 -1.113,-0.388 z m -7.895,-1.93 a 0.834,0.834 0 0 0 -0.8329999,0.835 v 5.8329999 c 0,0.46 0.3729999,0.833 0.8329999,0.833 h 4.167 a 0.834,0.834 0 0 0 0,-1.6659999 h -3.334 v -5 a 0.834,0.834 0 0 0 -0.833,-0.834 z m 0,0" fill="#8d8d8d"
        />
</svg>
