<?xml version="1.0" encoding="UTF-8"?>
<svg xmlns="http://www.w3.org/2000/svg" xmlns:xlink="http://www.w3.org/1999/xlink" width="15pt" height="16pt" viewBox="0 0 15 16" version="1.1">
<g id="surface1">
<path style=" stroke:none;fill-rule:nonzero;fill:rgb(0%,0%,0%);fill-opacity:1;" d="M 15.179688 8.179688 C 15.179688 12.601562 12.164062 15.75 7.714844 15.75 C 3.445312 15.75 0 12.289062 0 8 C 0 3.710938 3.445312 0.25 7.714844 0.25 C 9.789062 0.25 11.539062 1.015625 12.886719 2.277344 L 10.789062 4.304688 C 8.039062 1.644531 2.933594 3.644531 2.933594 8 C 2.933594 10.703125 5.082031 12.894531 7.714844 12.894531 C 10.765625 12.894531 11.914062 10.695312 12.09375 9.554688 L 7.714844 9.554688 L 7.714844 6.886719 L 15.054688 6.886719 C 15.128906 7.285156 15.179688 7.664062 15.179688 8.179688 Z M 15.179688 8.179688 "/>
</g>
</svg>
