<svg
   xmlns="http://www.w3.org/2000/svg"
   xmlns:sodipodi="http://sodipodi.sourceforge.net/DTD/sodipodi-0.dtd"
   xmlns:inkscape="http://www.inkscape.org/namespaces/inkscape"
   sodipodi:docname="user-grey.svg"
   width="21"
   height="21"
   >
    <path
       d="m 17.469305,13.415288 a 9.954,9.954 0 0 0 -3.8,-2.383 5.78,5.78 0 0 0 2.51,-4.7649999 5.788,5.788 0 0 0 -5.781,-5.77999996 5.788,5.788 0 0 0 -5.7809999,5.77999996 5.78,5.78 0 0 0 2.51,4.7649999 9.953,9.953 0 0 0 -3.8,2.383 9.933,9.933 0 0 0 -2.93000002,7.07 H 1.9603051 c 0,-4.651 3.786,-8.436 8.4379999,-8.436 4.652,0 8.438,3.785 8.438,8.437 h 1.562 a 9.933,9.933 0 0 0 -2.929,-7.07 z M 6.1793051,6.2672881 a 4.223,4.223 0 0 1 4.2189999,-4.218 4.223,4.223 0 0 1 4.219,4.218 4.224,4.224 0 0 1 -4.219,4.2199999 4.224,4.224 0 0 1 -4.2189999,-4.2199999 z" fill="#8d8d8d"
       />
</svg>
